STARTFONT 2.1
FONT -FontForge-Montserrat Alternates-Bold-R-Normal--24-240-75-75-P-144-ISO10646-1
SIZE 24 75 75
FONTBOUNDINGBOX 29 26 -2 -5
COMMENT "Generated by fontforge, http://fontforge.sourceforge.net"
COMMENT "Copyright 2011 The Montserrat Project Authors (https://github.com/JulietaUla/Montserrat)"
STARTPROPERTIES 39
FOUNDRY "FontForge"
FAMILY_NAME "Montserrat Alternates"
WEIGHT_NAME "Bold"
SLANT "R"
SETWIDTH_NAME "Normal"
ADD_STYLE_NAME ""
PIXEL_SIZE 24
POINT_SIZE 240
RESOLUTION_X 75
RESOLUTION_Y 75
SPACING "P"
AVERAGE_WIDTH 144
CHARSET_REGISTRY "ISO10646"
CHARSET_ENCODING "1"
FONTNAME_REGISTRY ""
CHARSET_COLLECTIONS "ISO10646-1"
FONT_NAME "MontserratAlternates-Bold"
FACE_NAME "Montserrat Alternates Bold"
COPYRIGHT "Copyright 2011 The Montserrat Project Authors (https://github.com/JulietaUla/Montserrat)"
FONT_VERSION "7.200"
FONT_ASCENT 19
FONT_DESCENT 5
UNDERLINE_POSITION -2
UNDERLINE_THICKNESS 2
X_HEIGHT 12
CAP_HEIGHT 16
RAW_ASCENT 800
RAW_DESCENT 200
NORM_SPACE 7
RELATIVE_WEIGHT 70
RELATIVE_SETWIDTH 50
SUPERSCRIPT_X 0
SUPERSCRIPT_Y 8
SUPERSCRIPT_SIZE 14
SUBSCRIPT_X 0
SUBSCRIPT_Y 1
SUBSCRIPT_SIZE 14
AVG_LOWERCASE_WIDTH 147
AVG_UPPERCASE_WIDTH 182
ENDPROPERTIES
CHARS 95
STARTCHAR space
ENCODING 32
SWIDTH 283 0
DWIDTH 7 0
BBX 1 1 0 0
BITMAP
00
ENDCHAR
STARTCHAR exclam
ENCODING 33
SWIDTH 289 0
DWIDTH 7 0
BBX 5 17 1 0
BITMAP
F8
F8
F8
F0
70
70
70
70
70
70
70
00
00
70
F8
F8
70
ENDCHAR
STARTCHAR quotedbl
ENCODING 34
SWIDTH 437 0
DWIDTH 10 0
BBX 8 7 1 10
BITMAP
E7
E7
E7
E7
E7
E7
E7
ENDCHAR
STARTCHAR numbersign
ENCODING 35
SWIDTH 720 0
DWIDTH 17 0
BBX 17 17 0 0
BITMAP
071C00
071C00
071C00
071C00
7FFF80
7FFF80
7FFF80
0E1800
0E3800
0E3800
FFFF00
FFFF00
FFFF00
0C3000
1C3000
1C3000
1C7000
ENDCHAR
STARTCHAR dollar
ENCODING 36
SWIDTH 638 0
DWIDTH 15 0
BBX 14 22 1 -2
BITMAP
0300
0300
0300
1FE0
3FF8
7FF0
FB30
F300
F300
FF00
7FC0
3FF0
0FF8
03F8
033C
433C
F378
FFF8
FFF0
3FC0
0300
0300
ENDCHAR
STARTCHAR percent
ENCODING 37
SWIDTH 877 0
DWIDTH 21 0
BBX 19 17 1 0
BITMAP
3C0780
7E0700
E70E00
C71C00
C31C00
C73800
E77000
7E7000
3CE780
01CFC0
01DCE0
039C60
071860
071C60
0E1CE0
1C0FC0
3C0780
ENDCHAR
STARTCHAR ampersand
ENCODING 38
SWIDTH 728 0
DWIDTH 17 0
BBX 16 17 1 0
BITMAP
0FC0
1FE0
3FF0
3CF0
3870
3CF0
1FE0
1FC0
3F88
7FCF
F1EE
F0FE
F07C
F87E
FFFF
7FEE
1F84
ENDCHAR
STARTCHAR quotesingle
ENCODING 39
SWIDTH 230 0
DWIDTH 6 0
BBX 3 7 1 10
BITMAP
E0
E0
E0
E0
E0
E0
E0
ENDCHAR
STARTCHAR parenleft
ENCODING 40
SWIDTH 357 0
DWIDTH 9 0
BBX 6 22 2 -5
BITMAP
3C
3C
78
78
70
F0
F0
F0
F0
E0
E0
E0
E0
F0
F0
F0
F0
70
78
78
3C
3C
ENDCHAR
STARTCHAR parenright
ENCODING 41
SWIDTH 358 0
DWIDTH 9 0
BBX 7 22 0 -5
BITMAP
F0
78
78
3C
3C
3C
1C
1E
1E
1E
1E
1E
1E
1E
1E
1C
3C
3C
3C
78
78
F0
ENDCHAR
STARTCHAR asterisk
ENCODING 42
SWIDTH 434 0
DWIDTH 10 0
BBX 10 9 0 8
BITMAP
0C00
4C80
7DC0
FF80
1F00
FF80
7DC0
4C80
0C00
ENDCHAR
STARTCHAR plus
ENCODING 43
SWIDTH 599 0
DWIDTH 14 0
BBX 12 11 1 3
BITMAP
0700
0700
0700
0700
FFF0
FFF0
FFF0
0700
0700
0700
0700
ENDCHAR
STARTCHAR comma
ENCODING 44
SWIDTH 262 0
DWIDTH 6 0
BBX 4 8 1 -4
BITMAP
70
F0
F0
F0
70
60
E0
E0
ENDCHAR
STARTCHAR hyphen
ENCODING 45
SWIDTH 386 0
DWIDTH 9 0
BBX 7 3 1 5
BITMAP
FE
FE
FE
ENDCHAR
STARTCHAR period
ENCODING 46
SWIDTH 262 0
DWIDTH 6 0
BBX 4 5 1 0
BITMAP
70
F0
F0
F0
70
ENDCHAR
STARTCHAR slash
ENCODING 47
SWIDTH 392 0
DWIDTH 9 0
BBX 11 23 -1 -2
BITMAP
00E0
00E0
01E0
01C0
01C0
03C0
0380
0380
0780
0700
0700
0F00
0E00
0E00
1E00
1C00
3C00
3800
3800
7800
7000
7000
F000
ENDCHAR
STARTCHAR zero
ENCODING 48
SWIDTH 679 0
DWIDTH 16 0
BBX 14 17 1 0
BITMAP
0FC0
1FF0
3FF8
7C78
783C
F03C
F03C
F03C
F03C
F03C
F03C
F03C
783C
7C78
3FF8
1FF0
0FC0
ENDCHAR
STARTCHAR one
ENCODING 49
SWIDTH 392 0
DWIDTH 9 0
BBX 7 17 0 0
BITMAP
FE
FE
FE
0E
0E
0E
0E
0E
0E
0E
0E
0E
0E
0E
0E
0E
0E
ENDCHAR
STARTCHAR two
ENCODING 50
SWIDTH 590 0
DWIDTH 14 0
BBX 13 17 0 0
BITMAP
1FC0
7FE0
FFF0
70F8
2078
0078
0078
00F0
01F0
03E0
07C0
0F80
1F00
3E00
7FF8
7FF8
7FF8
ENDCHAR
STARTCHAR three
ENCODING 51
SWIDTH 592 0
DWIDTH 14 0
BBX 13 17 0 0
BITMAP
7FF8
7FF8
7FF8
00F0
01E0
03C0
0780
07E0
07F0
07F8
0078
0078
4078
70F8
FFF0
FFF0
1FC0
ENDCHAR
STARTCHAR four
ENCODING 52
SWIDTH 689 0
DWIDTH 17 0
BBX 15 17 1 0
BITMAP
01F0
01E0
03C0
0780
0F00
0F00
1E00
3C78
7C78
7878
FFFE
FFFE
FFFE
0078
0078
0078
0078
ENDCHAR
STARTCHAR five
ENCODING 53
SWIDTH 595 0
DWIDTH 14 0
BBX 14 17 0 0
BITMAP
3FF8
3FF8
3FF8
3C00
3800
3800
3FC0
3FF0
7FF8
00F8
007C
003C
407C
70F8
7FF8
FFF0
1FC0
ENDCHAR
STARTCHAR six
ENCODING 54
SWIDTH 637 0
DWIDTH 15 0
BBX 14 17 1 0
BITMAP
07F0
1FF8
3FF0
7C10
7800
F000
F7E0
FFF0
FFF8
F87C
F83C
F03C
F03C
7878
3FF8
1FF0
0FC0
ENDCHAR
STARTCHAR seven
ENCODING 55
SWIDTH 620 0
DWIDTH 15 0
BBX 13 17 1 0
BITMAP
FFF8
FFF8
FFF8
E0F8
E0F0
E0F0
01E0
01E0
03E0
03C0
07C0
0780
0780
0F00
0F00
1F00
1E00
ENDCHAR
STARTCHAR eight
ENCODING 56
SWIDTH 660 0
DWIDTH 16 0
BBX 14 17 1 0
BITMAP
0FC0
3FF0
7FF8
7878
F078
F078
7878
7FF8
3FF0
7FF8
F87C
F03C
F03C
F87C
7FF8
7FF0
0FC0
ENDCHAR
STARTCHAR nine
ENCODING 57
SWIDTH 637 0
DWIDTH 15 0
BBX 14 17 0 0
BITMAP
0FC0
3FF0
7FF8
7878
703C
F03C
703C
787C
7FFC
3FFC
1FBC
003C
0078
20F8
3FF0
7FE0
3F80
ENDCHAR
STARTCHAR colon
ENCODING 58
SWIDTH 262 0
DWIDTH 6 0
BBX 4 14 1 0
BITMAP
70
F0
F0
F0
70
00
00
00
00
70
F0
F0
F0
70
ENDCHAR
STARTCHAR semicolon
ENCODING 59
SWIDTH 262 0
DWIDTH 6 0
BBX 4 18 1 -4
BITMAP
70
F0
F0
F0
70
00
00
00
00
00
70
F0
F0
F0
70
60
E0
E0
ENDCHAR
STARTCHAR less
ENCODING 60
SWIDTH 599 0
DWIDTH 14 0
BBX 12 12 1 2
BITMAP
0030
01F0
07F0
3FC0
FE00
F000
FC00
7F80
0FF0
01F0
0070
0010
ENDCHAR
STARTCHAR equal
ENCODING 61
SWIDTH 599 0
DWIDTH 14 0
BBX 12 9 1 4
BITMAP
FFF0
FFF0
FFF0
0000
0000
0000
FFF0
FFF0
FFF0
ENDCHAR
STARTCHAR greater
ENCODING 62
SWIDTH 599 0
DWIDTH 14 0
BBX 12 12 1 2
BITMAP
E000
F800
FF00
1FE0
07F0
00F0
03F0
1FE0
FF00
FC00
E000
8000
ENDCHAR
STARTCHAR question
ENCODING 63
SWIDTH 589 0
DWIDTH 14 0
BBX 13 17 0 0
BITMAP
0FC0
3FF0
FFF0
F8F8
2078
0078
00F0
01F0
03E0
03C0
0780
0000
0000
0780
0780
0780
0380
ENDCHAR
STARTCHAR at
ENCODING 64
SWIDTH 1035 0
DWIDTH 25 0
BBX 23 22 1 -5
BITMAP
00FE00
07FFC0
0F83E0
1E0070
380038
70FBDC
71FFCC
E3FFCE
E7C7CE
E783CE
E703CE
E703CE
E783CE
E783CC
E3FFFC
71FDF8
70F8F0
380000
1C0000
0F8300
07FF80
00FE00
ENDCHAR
STARTCHAR A
ENCODING 65
SWIDTH 796 0
DWIDTH 19 0
BBX 15 17 2 0
BITMAP
0FE0
1FF8
3FFC
7C7C
F01E
F01E
F01E
F01E
F01E
F01E
FFFE
FFFE
FFFE
F01E
F01E
F01E
F01E
ENDCHAR
STARTCHAR B
ENCODING 66
SWIDTH 765 0
DWIDTH 18 0
BBX 15 17 2 0
BITMAP
FFF0
FFF8
FFFC
F03C
F01E
F01C
F03C
FFF8
FFF8
FFFC
F01E
F01E
F01E
F01E
FFFE
FFFC
FFF0
ENDCHAR
STARTCHAR C
ENCODING 67
SWIDTH 733 0
DWIDTH 18 0
BBX 16 17 1 0
BITMAP
03F0
0FFC
3FFF
3E1E
7804
F800
F000
F000
F000
F000
F000
F800
7804
3E1E
3FFF
0FFE
03F0
ENDCHAR
STARTCHAR D
ENCODING 68
SWIDTH 826 0
DWIDTH 20 0
BBX 17 17 2 0
BITMAP
FFE000
FFF800
FFFC00
F03E00
F01F00
F00F00
F00780
F00780
F00780
F00780
F00780
F00F00
F01F00
F03E00
FFFC00
FFF800
FFE000
ENDCHAR
STARTCHAR E
ENCODING 69
SWIDTH 667 0
DWIDTH 16 0
BBX 15 17 1 0
BITMAP
07F0
3FFC
7FFC
7C18
7800
7800
7800
3FF0
3FF0
7FF0
F800
F000
F004
F81C
7FFC
3FFE
0FF0
ENDCHAR
STARTCHAR F
ENCODING 70
SWIDTH 615 0
DWIDTH 15 0
BBX 12 17 2 0
BITMAP
0FE0
3FF0
7FF0
7C30
F000
F000
F000
F000
FFE0
FFE0
FFE0
F000
F000
F000
F000
F000
F000
ENDCHAR
STARTCHAR G
ENCODING 71
SWIDTH 771 0
DWIDTH 19 0
BBX 16 17 1 0
BITMAP
03F8
0FFE
3FFF
3E0E
7C04
F800
F000
F000
F00F
F00F
F00F
F80F
780F
7E1F
3FFF
1FFF
07F7
ENDCHAR
STARTCHAR H
ENCODING 72
SWIDTH 808 0
DWIDTH 19 0
BBX 15 17 2 0
BITMAP
F00E
F00E
F00E
F00E
F00E
F00E
F00E
FFFE
FFFE
FFFE
F00E
F00E
F00E
F00E
F00E
F00E
F00E
ENDCHAR
STARTCHAR I
ENCODING 73
SWIDTH 483 0
DWIDTH 12 0
BBX 10 17 1 0
BITMAP
FFC0
FFC0
FFC0
1E00
1E00
1E00
1E00
1E00
1E00
1E00
1E00
1E00
1E00
1E00
FFC0
FFC0
FFC0
ENDCHAR
STARTCHAR J
ENCODING 74
SWIDTH 540 0
DWIDTH 13 0
BBX 11 19 0 -2
BITMAP
7FE0
7FE0
7FE0
01E0
01E0
01E0
01E0
01E0
01E0
01E0
01E0
01E0
01E0
01E0
41E0
63E0
FFC0
FFC0
3F00
ENDCHAR
STARTCHAR K
ENCODING 75
SWIDTH 740 0
DWIDTH 18 0
BBX 16 17 2 0
BITMAP
F01F
F03C
F078
F0F0
F1F0
F3E0
F7C0
FF80
FF80
FFC0
FFE0
F9F0
F0F8
F078
F07C
F03E
F01F
ENDCHAR
STARTCHAR L
ENCODING 76
SWIDTH 604 0
DWIDTH 15 0
BBX 12 17 2 0
BITMAP
F000
F000
F000
F000
F000
F000
F000
F000
F000
F000
F000
F000
F000
F000
FFF0
FFF0
FFF0
ENDCHAR
STARTCHAR M
ENCODING 77
SWIDTH 1221 0
DWIDTH 29 0
BBX 25 17 2 0
BITMAP
F3E0FC00
FFFBFF00
FFFFFF00
FC7F0F80
F03E0780
F01E0780
F01E0380
F01E0380
F01E0380
F01E0380
F01E0380
F01E0380
F01E0380
F01E0380
F01E0380
F01E0380
F01E0380
ENDCHAR
STARTCHAR N
ENCODING 78
SWIDTH 796 0
DWIDTH 19 0
BBX 15 17 2 0
BITMAP
F3F0
FFF8
FFFC
FC3E
F81E
F01E
F01E
F01E
F01E
F01E
F01E
F01E
F01E
F01E
F01E
F01E
F01E
ENDCHAR
STARTCHAR O
ENCODING 79
SWIDTH 844 0
DWIDTH 20 0
BBX 18 17 1 0
BITMAP
03F000
0FFC00
3FFF00
3E1F80
780780
F803C0
F003C0
F003C0
F003C0
F003C0
F003C0
F803C0
780780
3E1F80
3FFF00
0FFE00
03F800
ENDCHAR
STARTCHAR P
ENCODING 80
SWIDTH 732 0
DWIDTH 18 0
BBX 15 17 2 0
BITMAP
FFE0
FFF0
FFF8
F07C
F03C
F01E
F01E
F03C
F07C
FFF8
FFF8
FFE0
F000
F000
F000
F000
F000
ENDCHAR
STARTCHAR Q
ENCODING 81
SWIDTH 844 0
DWIDTH 20 0
BBX 18 20 1 -3
BITMAP
03F000
0FFC00
3FFF00
3E1F80
780780
F803C0
F003C0
F003C0
F003C0
F003C0
F1E3C0
F9E3C0
7DE780
7FFF80
3FFF00
0FFE00
07F800
01E000
01E000
01E000
ENDCHAR
STARTCHAR R
ENCODING 82
SWIDTH 735 0
DWIDTH 18 0
BBX 15 17 2 0
BITMAP
FFE0
FFF0
FFF8
F07C
F03C
F01E
F01E
F03C
F07C
FFFC
FFF8
FFE0
F0F0
F0F8
F078
F03C
F03E
ENDCHAR
STARTCHAR S
ENCODING 83
SWIDTH 638 0
DWIDTH 15 0
BBX 14 17 1 0
BITMAP
0FE0
3FF8
7FF8
F830
F000
F000
FC00
7F80
3FF0
0FF8
00F8
003C
403C
F078
FFF8
FFF0
1FC0
ENDCHAR
STARTCHAR T
ENCODING 84
SWIDTH 638 0
DWIDTH 15 0
BBX 16 17 0 0
BITMAP
0FF0
7FFC
FFFF
FBFE
43C4
03C0
03C0
03C0
03C0
03C0
03C0
03C0
03C0
03C0
03C0
03C0
03C0
ENDCHAR
STARTCHAR U
ENCODING 85
SWIDTH 792 0
DWIDTH 19 0
BBX 15 17 2 0
BITMAP
F01E
F01E
F01E
F01E
F01E
F01E
F01E
F01E
F01E
F01E
F01E
F01E
F03E
F87E
7FFE
3FFE
1F9E
ENDCHAR
STARTCHAR V
ENCODING 86
SWIDTH 746 0
DWIDTH 18 0
BBX 18 17 0 0
BITMAP
F003C0
F803C0
780780
780780
3C0F00
3C0F00
1E1E00
1E1E00
1F1E00
0F3C00
0F3C00
07F800
07F800
03F000
03F000
03F000
01E000
ENDCHAR
STARTCHAR W
ENCODING 87
SWIDTH 1201 0
DWIDTH 29 0
BBX 25 17 2 0
BITMAP
F03C0780
F03C0780
F03C0780
F03C0780
F03C0780
F03C0780
F03C0780
F03C0780
F03C0780
F03C0780
F03C0780
F03E0780
F03E0F80
787F0F00
7FFFFF00
3FF7FE00
0FC3F800
ENDCHAR
STARTCHAR X
ENCODING 88
SWIDTH 714 0
DWIDTH 17 0
BBX 17 17 0 0
BITMAP
F80F80
7C1F00
3E1E00
1E3C00
0F7800
0FF800
07F000
03E000
03E000
07F000
07F000
0F7800
1F7C00
1E3E00
3C1E00
7C0F00
F80F80
ENDCHAR
STARTCHAR Y
ENCODING 89
SWIDTH 785 0
DWIDTH 19 0
BBX 15 19 2 -2
BITMAP
F01E
F01E
F01E
F01E
F01E
F01E
F01E
F01E
F03E
F87E
7FFE
3FFE
1F9E
001E
403E
707C
FFF8
7FF0
1FE0
ENDCHAR
STARTCHAR Z
ENCODING 90
SWIDTH 681 0
DWIDTH 16 0
BBX 15 17 1 0
BITMAP
FFFC
FFFC
FFFC
0078
00F8
00F0
01E0
7FF8
7FF8
7FF8
0F00
1E00
3C00
7800
FFFE
FFFE
FFFE
ENDCHAR
STARTCHAR bracketleft
ENCODING 91
SWIDTH 368 0
DWIDTH 9 0
BBX 7 22 2 -5
BITMAP
FE
FE
FE
F0
F0
F0
F0
F0
F0
F0
F0
F0
F0
F0
F0
F0
F0
F0
F0
FE
FE
FE
ENDCHAR
STARTCHAR backslash
ENCODING 92
SWIDTH 392 0
DWIDTH 9 0
BBX 11 23 -1 -2
BITMAP
E000
F000
7000
7000
7800
3800
3800
3C00
1C00
1C00
1E00
0E00
0F00
0700
0700
0780
0380
0380
03C0
01C0
01C0
01E0
00E0
ENDCHAR
STARTCHAR bracketright
ENCODING 93
SWIDTH 368 0
DWIDTH 9 0
BBX 7 22 0 -5
BITMAP
FE
FE
FE
1E
1E
1E
1E
1E
1E
1E
1E
1E
1E
1E
1E
1E
1E
1E
1E
FE
FE
FE
ENDCHAR
STARTCHAR asciicircum
ENCODING 94
SWIDTH 600 0
DWIDTH 14 0
BBX 12 10 1 3
BITMAP
0F00
0F00
0F80
1F80
1DC0
39C0
38E0
70E0
7060
E070
ENDCHAR
STARTCHAR underscore
ENCODING 95
SWIDTH 500 0
DWIDTH 12 0
BBX 12 2 0 -2
BITMAP
FFF0
FFF0
ENDCHAR
STARTCHAR grave
ENCODING 96
SWIDTH 600 0
DWIDTH 14 0
BBX 7 4 2 14
BITMAP
F0
78
1C
0E
ENDCHAR
STARTCHAR a
ENCODING 97
SWIDTH 690 0
DWIDTH 17 0
BBX 14 13 1 0
BITMAP
0FBC
3FFC
7FFC
F87C
F03C
F03C
F03C
F03C
F03C
F87C
7FFC
3FFC
0FBC
ENDCHAR
STARTCHAR b
ENCODING 98
SWIDTH 690 0
DWIDTH 17 0
BBX 14 18 2 0
BITMAP
E000
E000
E000
E000
E000
E7C0
EFF0
FFF8
F8F8
F07C
F03C
E03C
F03C
F07C
F8F8
FFF8
FFF0
E7C0
ENDCHAR
STARTCHAR c
ENCODING 99
SWIDTH 591 0
DWIDTH 14 0
BBX 13 13 1 0
BITMAP
0FC0
3FE0
7FF0
F878
F020
F000
F000
F000
F040
F878
7FF0
3FE0
0FC0
ENDCHAR
STARTCHAR d
ENCODING 100
SWIDTH 692 0
DWIDTH 17 0
BBX 14 18 1 0
BITMAP
003C
003C
003C
003C
003C
0FBC
3FFC
7FFC
F87C
F03C
F03C
F03C
F03C
F03C
F87C
7FFC
3FFC
0FBC
ENDCHAR
STARTCHAR e
ENCODING 101
SWIDTH 631 0
DWIDTH 15 0
BBX 13 13 1 0
BITMAP
0F80
3FE0
7FF0
F8F8
F078
F0F8
FFF8
FF00
F000
F860
7FF0
3FF0
0FC0
ENDCHAR
STARTCHAR f
ENCODING 102
SWIDTH 368 0
DWIDTH 9 0
BBX 8 18 2 0
BITMAP
3F
7E
FE
F0
E0
FE
FE
FE
E0
E0
E0
E0
E0
E0
E0
E0
E0
E0
ENDCHAR
STARTCHAR g
ENCODING 103
SWIDTH 700 0
DWIDTH 17 0
BBX 14 18 1 -5
BITMAP
0FBC
3FFC
7FFC
F87C
F03C
F03C
F03C
F03C
F03C
F87C
7FFC
3FFC
0FBC
003C
3078
7FF8
FFF0
1FC0
ENDCHAR
STARTCHAR h
ENCODING 104
SWIDTH 691 0
DWIDTH 17 0
BBX 13 18 2 0
BITMAP
E000
E000
E000
E000
E000
E7C0
FFF0
FFF0
F8F8
F078
F078
E078
E078
E078
E078
E078
E078
E078
ENDCHAR
STARTCHAR i
ENCODING 105
SWIDTH 301 0
DWIDTH 7 0
BBX 5 19 1 0
BITMAP
70
F8
F8
70
00
00
70
70
70
70
70
70
70
70
70
70
70
70
70
ENDCHAR
STARTCHAR j
ENCODING 106
SWIDTH 307 0
DWIDTH 7 0
BBX 8 24 -2 -5
BITMAP
0E
1F
1F
0E
00
00
0F
0F
0F
0F
0F
0F
0F
0F
0F
0F
0F
0F
0F
0F
0E
FE
FE
F8
ENDCHAR
STARTCHAR k
ENCODING 107
SWIDTH 660 0
DWIDTH 16 0
BBX 14 18 2 0
BITMAP
E000
E000
E000
E000
E000
E0F8
E1F0
E3E0
E7C0
EF80
FF00
FF80
FFC0
FBC0
F1E0
E1F0
E0F8
E07C
ENDCHAR
STARTCHAR l
ENCODING 108
SWIDTH 351 0
DWIDTH 8 0
BBX 6 18 2 0
BITMAP
E0
E0
E0
E0
E0
E0
E0
E0
E0
E0
E0
E0
E0
E0
F0
FC
7C
3C
ENDCHAR
STARTCHAR m
ENCODING 109
SWIDTH 1049 0
DWIDTH 25 0
BBX 22 13 2 0
BITMAP
E7C3E0
FFEFF0
FFFFF8
F8FC78
F0F838
F0783C
E0783C
E0783C
E0783C
E0783C
E0783C
E0783C
E0783C
ENDCHAR
STARTCHAR n
ENCODING 110
SWIDTH 691 0
DWIDTH 17 0
BBX 13 13 2 0
BITMAP
E7C0
FFF0
FFF0
F8F8
F078
F078
E078
E078
E078
E078
E078
E078
E078
ENDCHAR
STARTCHAR o
ENCODING 111
SWIDTH 655 0
DWIDTH 16 0
BBX 14 13 1 0
BITMAP
0FC0
3FF0
7FF8
F878
F03C
F03C
F03C
F03C
F03C
F878
7FF8
3FF0
0FC0
ENDCHAR
STARTCHAR p
ENCODING 112
SWIDTH 690 0
DWIDTH 17 0
BBX 14 18 2 -5
BITMAP
E7C0
FFF0
FFF8
F8F8
F07C
F03C
E03C
F03C
F07C
F8F8
FFF8
EFF0
E7C0
E000
E000
E000
E000
E000
ENDCHAR
STARTCHAR q
ENCODING 113
SWIDTH 690 0
DWIDTH 17 0
BBX 14 18 1 -5
BITMAP
0FBC
3FFC
7FFC
F87C
F03C
F03C
F03C
F03C
F03C
F87C
7FFC
3FFC
0FBC
003C
003C
003C
003C
003C
ENDCHAR
STARTCHAR r
ENCODING 114
SWIDTH 431 0
DWIDTH 10 0
BBX 8 13 2 0
BITMAP
E7
FF
FF
F8
F0
F0
E0
E0
E0
E0
E0
E0
E0
ENDCHAR
STARTCHAR s
ENCODING 115
SWIDTH 531 0
DWIDTH 13 0
BBX 12 13 0 0
BITMAP
0FC0
3FF0
7FE0
7860
7000
7E00
3FE0
07F0
00F0
60F0
7FF0
FFE0
1F80
ENDCHAR
STARTCHAR t
ENCODING 116
SWIDTH 412 0
DWIDTH 10 0
BBX 8 16 2 0
BITMAP
E0
E0
E0
FE
FE
FE
E0
E0
E0
E0
E0
E0
F0
FE
7E
3F
ENDCHAR
STARTCHAR u
ENCODING 117
SWIDTH 687 0
DWIDTH 16 0
BBX 13 13 2 0
BITMAP
E078
E078
E078
E078
E078
E078
E078
E078
F078
F0F8
FFF8
7FF8
3F78
ENDCHAR
STARTCHAR v
ENCODING 118
SWIDTH 598 0
DWIDTH 14 0
BBX 15 13 0 0
BITMAP
F01E
F03C
783C
7878
3878
3C70
1CF0
1EE0
1FE0
0FE0
0FC0
07C0
0780
ENDCHAR
STARTCHAR w
ENCODING 119
SWIDTH 991 0
DWIDTH 24 0
BBX 20 13 2 0
BITMAP
E0F0F0
E0F0F0
E0F0F0
E0F0F0
E0F0F0
E0F0F0
E0F0F0
E0F0F0
F0F0F0
F1F8F0
FFFFE0
7FFFE0
1F0F80
ENDCHAR
STARTCHAR x
ENCODING 120
SWIDTH 595 0
DWIDTH 14 0
BBX 14 13 0 0
BITMAP
F83C
7C78
3CF0
1FE0
0FE0
0FC0
0780
0FC0
0FE0
1FF0
3CF0
7878
F83C
ENDCHAR
STARTCHAR y
ENCODING 121
SWIDTH 687 0
DWIDTH 16 0
BBX 13 18 2 -5
BITMAP
E078
E078
E078
E078
E078
E078
E078
F078
F0F8
FFF8
7FF8
3F78
0078
40F0
E1F0
FFF0
FFE0
3F80
ENDCHAR
STARTCHAR z
ENCODING 122
SWIDTH 553 0
DWIDTH 13 0
BBX 11 13 1 0
BITMAP
FFE0
FFE0
FFE0
03C0
0780
7FE0
7FE0
7FE0
3C00
7800
FFE0
FFE0
FFE0
ENDCHAR
STARTCHAR braceleft
ENCODING 123
SWIDTH 391 0
DWIDTH 9 0
BBX 8 22 1 -5
BITMAP
0F
1F
3F
3C
3C
3C
3C
3C
3C
FC
F0
F8
3C
3C
3C
3C
3C
3C
3C
3F
1F
0F
ENDCHAR
STARTCHAR bar
ENCODING 124
SWIDTH 309 0
DWIDTH 7 0
BBX 3 22 2 -5
BITMAP
E0
E0
E0
E0
E0
E0
E0
E0
E0
E0
E0
E0
E0
E0
E0
E0
E0
E0
E0
E0
E0
E0
ENDCHAR
STARTCHAR braceright
ENCODING 125
SWIDTH 391 0
DWIDTH 9 0
BBX 8 22 0 -5
BITMAP
F0
FC
FC
3C
3C
1C
1C
1C
1C
1F
0F
1F
1C
1C
1C
1C
1C
1C
3C
FC
F8
F0
ENDCHAR
STARTCHAR asciitilde
ENCODING 126
SWIDTH 599 0
DWIDTH 14 0
BBX 12 5 1 6
BITMAP
3C30
7E70
7FF0
E7E0
E1C0
ENDCHAR
ENDFONT
